<svg width="342" height="357" viewBox="0 0 342 357" fill="none" xmlns="http://www.w3.org/2000/svg">
<g opacity="0.07" clip-path="url(#clip0_305_3842)">
<path fill-rule="evenodd" clip-rule="evenodd" d="M615.465 459.767C615.465 459.767 607.027 439.958 583.873 414.202C573.355 402.493 559.795 389.611 542.56 376.683C531.602 368.464 519.178 360.228 505.096 352.266C487.421 342.269 467.191 332.603 443.845 324.311C366.946 296.586 275.964 258.012 197.049 206.942C143.605 172.354 95.7227 132.049 61.364 85.7057C56.8836 79.6586 53.6124 74.2159 50.7079 68.1321C48.0875 62.6714 45.7606 56.6977 43.0852 49.2762C42.6912 48.2409 43.2134 47.0771 44.2579 46.6831C45.2932 46.2983 46.4567 46.8208 46.8415 47.8653C49.6544 55.0577 52.0731 60.8481 54.7668 66.1256C57.6988 71.8612 60.9519 76.9831 65.3865 82.6546C100.387 127.513 148.654 165.986 202.134 198.888C281.397 247.64 372.187 284.033 448.885 309.862C473.311 318.218 494.642 327.802 513.03 338.265C527.809 346.667 540.728 355.563 551.97 364.552C569.663 378.726 583.269 393.038 593.567 406.03C616.427 434.873 623.189 456.972 623.189 456.972C623.958 459.098 622.859 461.453 620.724 462.231C618.598 463.001 616.235 461.893 615.465 459.767Z" fill="white"/>
<path fill-rule="evenodd" clip-rule="evenodd" d="M80.9618 109.729C80.9618 109.729 79.1021 108.831 76.0877 107.127C74.7041 106.339 73.0913 105.422 71.3505 104.295C67.3923 101.739 62.7382 98.349 57.3324 95.6094C51.9724 92.8974 46.1268 90.5425 40.0613 89.5804C39.365 89.5255 38.8521 88.9117 38.9071 88.2154C38.962 87.519 39.5758 87.0062 40.2721 87.0611C48.5091 87.1528 56.7736 89.4982 63.9844 92.4576C66.8522 93.6396 69.5363 94.8946 71.946 96.214C73.7877 97.2218 75.5107 98.2021 76.9584 99.2466C78.461 100.337 79.6794 101.437 80.6873 102.408C82.9687 104.589 84.0862 106.055 84.0862 106.055C85.1033 106.916 85.2226 108.437 84.3614 109.454C83.5001 110.471 81.9789 110.59 80.9618 109.729Z" fill="white"/>
<path fill-rule="evenodd" clip-rule="evenodd" d="M140.518 165.48C140.518 165.48 138.796 165.919 135.763 166.194C134.416 166.313 132.831 166.405 131.045 166.313C129.322 166.213 127.444 165.892 125.456 165.507C122.854 165.012 120.096 164.288 117.246 163.381C110.118 161.118 102.623 157.674 96.5577 152.414C95.9988 151.993 95.8796 151.205 96.301 150.646C96.7133 150.087 97.5104 149.968 98.0693 150.38C103.081 153.55 108.78 155.447 114.351 156.748C119.995 158.058 125.492 158.361 129.972 158.856C131.942 159.075 133.683 159.377 135.177 159.634C138.448 160.193 140.372 160.66 140.372 160.66C141.7 160.614 142.809 161.659 142.855 162.988C142.901 164.316 141.847 165.434 140.518 165.48Z" fill="white"/>
<path fill-rule="evenodd" clip-rule="evenodd" d="M104.719 131.553C104.719 131.553 104.068 130.161 103.317 127.641C102.978 126.514 102.612 125.195 102.383 123.665C102.163 122.19 102.108 120.55 102.062 118.8C102.007 116.491 102.09 114.017 102.264 111.47C102.722 104.451 103.931 97.0572 106.588 91.4591C106.835 90.8085 107.56 90.4788 108.219 90.717C108.87 90.9644 109.2 91.6971 108.961 92.3477C108.027 95.7377 107.77 99.6502 107.798 103.7C107.825 108.199 108.357 112.752 108.87 116.866C109.117 118.891 109.447 120.779 109.593 122.492C109.685 123.683 109.685 124.764 109.676 125.745C109.649 128.832 109.465 130.674 109.465 130.674C109.703 131.984 108.842 133.239 107.532 133.486C106.222 133.725 104.957 132.854 104.719 131.553Z" fill="white"/>
<path fill-rule="evenodd" clip-rule="evenodd" d="M246.601 235.922C246.601 235.922 241.452 236.398 233.115 237.131C229.23 237.47 224.676 237.883 219.618 238.258C207.936 239.138 193.643 240.091 179.267 242.5C164.003 245.066 148.638 248.905 136.187 254.971C135.573 255.291 134.812 255.053 134.482 254.439C134.161 253.825 134.4 253.055 135.014 252.735C150.361 244.058 170.517 238.487 189.502 234.978C196.584 233.677 203.493 232.633 209.934 231.891C214.835 231.332 219.444 230.864 223.65 230.663C227.974 230.452 231.85 230.47 235.13 230.525C242.322 230.653 246.638 231.103 246.638 231.103C247.976 231.112 249.048 232.202 249.03 233.53C249.02 234.859 247.93 235.931 246.601 235.922Z" fill="white"/>
<path fill-rule="evenodd" clip-rule="evenodd" d="M177.159 270.317C175.794 264.435 177.287 257.508 179.624 251.232C180.613 248.584 181.75 246.101 182.932 243.883C183.5 242.821 184.04 241.804 184.663 240.924C185.314 240.017 185.992 239.247 186.642 238.588C188.695 236.48 190.142 235.473 190.142 235.473C190.976 234.447 192.479 234.291 193.505 235.124C194.531 235.958 194.687 237.461 193.853 238.487C193.853 238.487 193.377 239.797 192.332 241.941C191.856 242.903 191.333 244.039 190.6 245.24C189.519 246.999 188.053 248.849 186.715 250.948C184.929 253.77 183.124 256.793 181.814 259.982C180.43 263.344 179.468 266.725 179.588 269.996C179.67 270.665 179.203 271.279 178.534 271.37C177.865 271.462 177.251 270.986 177.159 270.317Z" fill="white"/>
<path fill-rule="evenodd" clip-rule="evenodd" d="M239.831 321.305C254.06 307.772 274.583 298.436 294.466 292.15C303.234 289.383 311.856 287.194 319.754 285.544C323.62 284.738 327.312 284.024 330.767 283.529C334.358 283.007 337.694 282.676 340.662 282.447C349.879 281.733 355.633 281.907 355.633 281.907C356.953 281.834 358.08 282.842 358.153 284.152C358.235 285.471 357.228 286.598 355.908 286.681C355.908 286.681 349.146 287.661 338.619 289.576C336.805 289.906 334.881 290.245 332.856 290.593C331.014 290.895 329.09 291.198 327.093 291.519C314.558 293.516 299.358 296.429 284.424 301.212C268.637 306.27 253.144 313.224 241.471 323.119C240.967 323.577 240.197 323.531 239.739 323.027C239.29 322.524 239.336 321.754 239.831 321.305Z" fill="white"/>
<path fill-rule="evenodd" clip-rule="evenodd" d="M300.214 329.093C298.894 322.9 301.698 314.012 305.51 305.803C306.948 302.679 308.524 299.682 310.109 296.998C310.861 295.715 311.585 294.479 312.372 293.407C313.188 292.298 314.021 291.345 314.791 290.511C317.228 287.909 318.942 286.553 318.942 286.553C319.766 285.518 321.269 285.344 322.304 286.159C323.33 286.984 323.505 288.486 322.689 289.522C322.689 289.522 321.965 291.171 320.536 293.81C319.886 295.019 319.134 296.43 318.154 297.923C316.706 300.15 314.819 302.514 313.041 305.134C310.604 308.716 308.121 312.556 306.215 316.386C303.998 320.848 302.431 325.145 302.632 328.773C302.724 329.442 302.257 330.056 301.588 330.148C300.92 330.239 300.305 329.762 300.214 329.093Z" fill="white"/>
<path fill-rule="evenodd" clip-rule="evenodd" d="M181.501 103.16C177.13 113.174 176.571 126.35 177.579 139.58C178.468 151.326 180.758 163.063 182.866 172.693C183.196 174.214 183.516 175.67 183.791 177.081C184.103 178.62 184.369 180.096 184.616 181.488C186.018 189.57 186.98 194.756 186.98 194.756C187.365 196.011 186.659 197.349 185.394 197.733C184.139 198.118 182.801 197.413 182.417 196.149C182.417 196.149 180.273 191.146 177.863 183.083C177.451 181.69 177.048 180.206 176.672 178.639C176.333 177.201 176.021 175.698 175.737 174.14C173.877 164.162 172.393 151.931 172.283 139.809C172.164 125.919 173.951 112.203 179.292 102.097C179.585 101.492 180.319 101.236 180.932 101.529C181.537 101.822 181.794 102.555 181.501 103.16Z" fill="white"/>
<path fill-rule="evenodd" clip-rule="evenodd" d="M291.774 171.536C288.695 184.382 290.94 198.473 295.265 211.814C299.315 224.284 305.334 236.002 310.685 245.449C311.528 246.942 312.343 248.372 313.113 249.764C313.956 251.276 314.744 252.733 315.486 254.116C319.756 262.069 322.733 267.099 322.733 267.099C323.521 268.153 323.292 269.656 322.239 270.434C321.176 271.222 319.682 271.002 318.894 269.939C318.894 269.939 314.826 265.432 309.558 257.708C308.651 256.38 307.725 254.941 306.8 253.401C305.957 252 305.133 250.507 304.308 248.949C299.031 239.008 293.597 226.446 290.189 213.298C286.496 199.05 285.278 184.116 289.41 170.886C289.593 170.235 290.262 169.85 290.912 170.033C291.563 170.208 291.948 170.886 291.774 171.536Z" fill="white"/>
<path fill-rule="evenodd" clip-rule="evenodd" d="M38.9012 0.0649511C47.0923 -0.493951 53.4239 2.59327 58.0692 7.8158C61.0378 11.1417 63.2182 15.4299 64.7116 20.2401C66.1593 24.9129 66.8926 30.1173 66.9659 35.4773C67.1216 47.3883 63.9968 60.0688 58.7559 69.7717L57.5832 72.0075L55.1277 71.3845C42.2821 67.857 32.6987 53.3343 28.4566 38.0698C25.3322 26.8093 25.0386 15.3016 27.998 8.11834C30.087 3.04241 33.6878 -0.0449969 38.9012 0.0649511ZM54.2206 64.4026C44.2703 60.5911 37.0139 48.7627 33.1473 36.6684C29.9039 26.5349 29.0337 16.0987 31.4434 9.456C32.7903 5.76358 35.163 3.30815 38.9012 3.22569C44.4169 3.61967 48.5583 5.89176 51.7376 9.24518C54.862 12.5436 56.8597 17.0152 58.1424 22.0911C59.1961 26.2691 59.7 30.8412 59.7642 35.569C59.8741 45.4185 58.0046 55.8908 54.2206 64.4026Z" fill="white"/>
<path fill-rule="evenodd" clip-rule="evenodd" d="M1.42371 75.1772C3.14622 68.6261 8.1577 65.2358 14.608 64.2829C18.0805 63.7699 22.0022 64.1182 26.0519 65.1352C29.891 66.0972 33.8489 67.7278 37.6329 69.8992C46.0439 74.7278 53.5755 82.2136 57.7169 90.6246L59.2654 93.6668L56.141 95.0224C46.7679 98.8431 27.8202 100.896 14.7455 97.2492C7.99291 95.3709 2.78879 91.9991 0.855534 86.8957C-0.353893 83.7256 -0.381271 79.85 1.42371 75.1772ZM50.1579 90.4871C41.078 93.5656 26.4917 95.2425 15.8634 92.842C7.15922 90.8629 1.20392 86.0159 4.40158 76.2397C6.10577 72.529 9.1842 70.7976 12.8766 70.2387C16.2484 69.7256 20.1149 70.3761 24.183 71.6955C27.4356 72.74 30.7706 74.2606 34.0416 76.148C40.2628 79.7305 46.1997 84.6507 50.1579 90.4871Z" fill="white"/>
<path fill-rule="evenodd" clip-rule="evenodd" d="M42.3985 131.507L44.2216 131.086C50.8735 129.262 58.5518 127.952 66.3764 128.071C71.434 128.153 76.5284 128.859 81.4028 130.242C93.3688 133.66 103.997 141.219 109.952 154.642L111.162 157.281L108.495 158.435C99.1224 162.329 83.6935 165.554 69.7301 161.138C58.8452 157.693 48.7571 149.703 43.2139 133.724L42.3985 131.507ZM47.1357 134.943C54.2274 133.843 62.2807 133.706 70.2244 134.732C75.621 135.429 80.9905 136.638 85.9565 138.846C92.9199 141.943 99.1133 146.845 103.41 154.395C94.9078 157.675 82.5205 160.066 71.0034 156.85C61.5571 154.202 52.7522 147.742 47.1357 134.943Z" fill="white"/>
<path fill-rule="evenodd" clip-rule="evenodd" d="M84.8253 255.209L86.0439 254.164C91.3672 249.171 97.7533 244.965 104.799 242.024C109.408 240.091 114.3 238.726 119.257 237.956C131.91 235.986 145.013 237.901 155.971 244.214L158.756 245.771L156.924 248.373C152.013 255.108 138.837 267.807 123.142 271.105C111.442 273.561 98.3123 270.996 86.2547 256.831L84.8253 255.209ZM90.1855 256.39C95.1698 252.744 100.942 249.922 107.016 247.796C111.304 246.294 115.748 245.176 120.256 244.489C130.445 242.941 140.953 243.655 150.189 247.769C144.884 254.283 134.476 263.693 122.143 266.708C112.175 269.145 100.988 267.303 90.1855 256.39Z" fill="white"/>
<path fill-rule="evenodd" clip-rule="evenodd" d="M150.514 304.575V302.88C150.386 300.387 150.707 291.005 153.767 281C155.178 276.364 157.276 271.645 159.951 267.403C164.697 259.871 171.45 253.934 180.53 252.413L182.454 252.056L183.499 253.724C189.216 263.262 189.545 277.454 182.774 288.449C177.414 297.153 167.685 303.942 152.741 304.455L150.514 304.575ZM179.65 258.579C183.773 266.404 183.847 277.335 178.872 286.149C174.684 293.598 166.924 299.517 155.013 301.056C155.563 297.492 157.148 290.492 159.86 283.043C161.353 278.947 163.121 274.678 165.476 270.839C168.884 265.268 173.383 260.485 179.65 258.579Z" fill="white"/>
<path fill-rule="evenodd" clip-rule="evenodd" d="M194.335 346.949L195.673 345.346C200.602 338.905 206.228 331.3 212.752 324.685C217.15 320.223 221.978 316.255 226.935 313.13C236.674 306.992 247.138 304.298 257.573 308.174L260.56 309.237L259.195 312.104C255.017 320.469 245.048 341.433 228.73 349.624C219.889 354.059 209.205 354.929 196.589 348.122L194.335 346.949ZM200.474 346.436C205.458 340.966 211.221 334.937 217.25 329.312C221.501 325.344 225.863 321.551 230.426 318.601C237.499 314.02 244.948 311.271 252.608 312.746C248.356 321.981 240.129 338.62 226.779 345.877C219.568 349.798 210.855 350.87 200.474 346.436Z" fill="white"/>
<path fill-rule="evenodd" clip-rule="evenodd" d="M229.128 247.464L230.905 247.73C236.98 248.399 245.583 250.882 254.599 254.941C259.418 257.113 264.338 259.751 269.057 262.729C282.187 271.039 293.64 281.979 297.607 292.763L298.89 296.135L295.308 296.63C276.387 299.012 261.461 295.356 250.613 288.604C235.385 279.112 228.12 263.526 229.009 249.773L229.128 247.464ZM232.179 252.385C238.611 253.988 247.205 257.864 256.056 262.747C261.434 265.707 266.941 269.005 271.998 272.661C279.906 278.369 286.832 284.765 290.607 291.444C274.976 293.157 262.387 290.243 252.95 284.737C239.719 277.022 232.674 264.287 232.179 252.385Z" fill="white"/>
<path fill-rule="evenodd" clip-rule="evenodd" d="M273.844 362.884V361.189C273.716 358.697 274.046 349.315 277.097 339.309C278.517 334.673 280.615 329.954 283.29 325.712C288.036 318.181 294.789 312.234 303.86 310.722L305.793 310.365L306.838 312.033C312.546 321.571 312.885 335.754 306.114 346.758C300.754 355.462 291.023 362.243 276.08 362.765L273.844 362.884ZM302.98 316.889C307.103 324.713 307.177 335.644 302.211 344.458C298.014 351.907 290.254 357.817 278.343 359.356C278.893 355.801 280.478 348.792 283.19 341.352C284.683 337.247 286.451 332.987 288.806 329.148C292.223 323.577 296.722 318.795 302.98 316.889Z" fill="white"/>
<path fill-rule="evenodd" clip-rule="evenodd" d="M120.717 53.0323C126.965 54.599 130.273 59.4093 131.217 65.7496C131.712 69.048 131.4 72.8049 130.457 76.7356C129.577 80.3822 128.074 84.1844 126.04 87.8859C121.771 95.6739 115.155 103.013 107.376 108.098L104.802 109.83L102.987 107.32C96.1249 97.3234 95.273 85.009 97.9209 74.5456C99.7808 67.2433 103.281 60.8848 107.422 56.9267C111.545 52.9869 116.273 51.3373 120.717 53.0323ZM106.35 100.86C101.696 93.0536 101.055 83.7444 102.685 75.6266C104.252 67.8295 107.843 61.0588 112.269 57.7421C114.605 55.9921 117.143 55.2039 119.681 56.0102C123.163 57.6044 124.757 60.5363 125.27 64.1004C125.728 67.2981 125.115 70.9721 123.878 74.9119C122.897 78.0088 121.486 81.225 119.727 84.4227C116.438 90.4057 111.902 96.3246 106.35 100.86Z" fill="white"/>
<path fill-rule="evenodd" clip-rule="evenodd" d="M186.529 43.557L187.408 44.1805C195.801 49.6413 200.749 57.768 202.691 66.8112C203.965 72.7393 203.864 79.0706 202.746 85.2002C199.759 101.564 189.232 116.517 176.249 120.897L173.72 121.785L172.758 119.284C168.14 106.75 165.886 92.8413 167.288 79.8674C168.772 66.2247 174.242 53.6174 185.145 44.7208L186.529 43.557ZM185.805 48.3859C192.017 53.5535 195.205 60.5445 196.452 67.9934C197.331 73.216 197.24 78.6856 196.296 84.0364C193.987 97.1569 186.767 109.618 176.881 114.62C172.84 103.635 170.761 91.6228 171.649 80.2706C172.593 68.1764 176.881 56.8427 185.805 48.3859Z" fill="white"/>
<path fill-rule="evenodd" clip-rule="evenodd" d="M209.408 114.611L209.847 115.867C212.678 122.638 213.631 128.492 213.017 133.458C212.44 138.103 210.488 141.979 207.731 145.076C201.693 151.874 191.238 154.953 179.84 154.742H177.083V151.985C177.349 139.863 180.216 131.965 184.293 126.687C190.707 118.368 200.126 116.462 207.483 115.033L209.408 114.611ZM206.155 118.615C207.492 124.03 207.511 128.593 206.75 132.459C206.1 135.758 204.771 138.498 202.81 140.743C198.339 145.873 190.936 148.503 182.589 149.098C182.754 139.945 184.752 133.669 187.821 129.28C192.659 122.353 199.988 120.145 206.155 118.615Z" fill="white"/>
<path fill-rule="evenodd" clip-rule="evenodd" d="M279.671 102.471L280.679 102.846C290.29 106.044 297.336 113.145 301.679 122.097C304.419 127.722 306.013 134.099 306.627 140.549C308.331 158.306 302.284 176.658 290.859 184.199L288.632 185.702L287.065 183.53C277.885 170.419 270.995 152.992 270.143 136.344C269.547 124.543 271.948 113.145 278.636 103.946L279.671 102.471ZM280.212 107.327C287.67 110.809 292.673 117.241 295.925 124.745C298.133 129.848 299.526 135.464 300.113 141.191C301.551 155.475 298.133 170.419 289.86 177.95C281.65 166.076 275.457 150.821 274.275 136.078C273.45 125.78 275.063 115.738 280.212 107.327Z" fill="white"/>
<path fill-rule="evenodd" clip-rule="evenodd" d="M242.421 188.029L243.639 187.754C251.931 185.455 259.573 185.216 266.49 187.012C271.557 188.332 276.221 190.768 280.426 194.14C288.92 200.948 295.535 211.787 300.254 225.934L301.71 230.112L297.303 229.663C283.331 228.013 266.188 226.227 254.9 216.918C248.01 211.237 243.163 202.826 242.549 189.944L242.421 188.029ZM245.903 191.712C252.848 190.64 259.087 191.208 264.75 193.032C268.937 194.379 272.776 196.458 276.313 199.28C283.184 204.769 288.911 212.969 293.336 223.679C281.095 222.644 267.205 221.096 257.511 213.638C251.51 209.038 247.194 202.148 245.903 191.712Z" fill="white"/>
<path fill-rule="evenodd" clip-rule="evenodd" d="M327.343 164.519L327.774 165.783C330.743 173.067 331.265 180.168 329.854 186.6C328.81 191.364 326.647 195.735 323.834 199.538C316.568 209.35 304.639 215.343 293.251 215.168H290.474V212.392C290.712 199.775 294.57 189.935 299.893 182.559C307.617 171.858 318.373 166.342 325.41 164.941L327.343 164.519ZM324.109 168.605C325.548 174.524 325.144 180.04 323.715 185.061C322.616 188.937 320.857 192.492 318.548 195.653C313.078 203.138 304.676 208.37 296.045 209.424C296.366 199.382 299.352 191.319 303.503 185.061C309.504 176.027 317.851 170.694 324.109 168.605Z" fill="white"/>
</g>
<defs>
<clipPath id="clip0_305_3842">
<rect width="342" height="357" fill="white" transform="matrix(-1 0 0 1 342 0)"/>
</clipPath>
</defs>
</svg>
