<svg width="195" height="188" viewBox="0 0 195 188" fill="none" xmlns="http://www.w3.org/2000/svg">
<g opacity="0.07" clip-path="url(#clip0_403_1088)">
<path fill-rule="evenodd" clip-rule="evenodd" d="M309.38 231.114C309.38 231.114 305.138 221.156 293.5 208.21C288.212 202.324 281.396 195.848 272.732 189.35C267.224 185.218 260.979 181.078 253.9 177.076C245.015 172.051 234.846 167.192 223.111 163.024C184.455 149.087 138.721 129.697 99.0519 104.025C72.187 86.6382 48.1175 66.3778 30.8462 43.0823C28.594 40.0425 26.9496 37.3066 25.4897 34.2484C24.1724 31.5034 23.0027 28.5006 21.6579 24.77C21.4598 24.2495 21.7223 23.6645 22.2473 23.4665C22.7678 23.273 23.3526 23.5357 23.5461 24.0607C24.96 27.6762 26.1759 30.5869 27.5299 33.2398C29.0038 36.1229 30.639 38.6976 32.8682 41.5485C50.4619 64.098 74.7247 83.4372 101.608 99.9762C141.452 124.483 187.09 142.777 225.644 155.76C237.923 159.961 248.645 164.778 257.888 170.038C265.317 174.262 271.811 178.733 277.463 183.252C286.356 190.377 293.195 197.571 298.372 204.102C309.863 218.6 313.262 229.709 313.262 229.709C313.649 230.778 313.097 231.961 312.023 232.353C310.955 232.74 309.767 232.183 309.38 231.114Z" fill="white"/>
<path fill-rule="evenodd" clip-rule="evenodd" d="M40.6976 55.1581C40.6976 55.1581 39.7628 54.7068 38.2475 53.8501C37.552 53.454 36.7413 52.9933 35.8662 52.4268C33.8766 51.1419 31.537 49.4378 28.8197 48.0607C26.1253 46.6974 23.1869 45.5136 20.1379 45.03C19.7879 45.0024 19.53 44.6939 19.5577 44.3438C19.5853 43.9938 19.8938 43.736 20.2439 43.7636C24.3844 43.8097 28.5388 44.9887 32.1635 46.4763C33.605 47.0705 34.9543 47.7013 36.1656 48.3645C37.0913 48.8712 37.9575 49.3639 38.6852 49.889C39.4405 50.4371 40.053 50.9899 40.5596 51.4781C41.7064 52.5743 42.2682 53.3112 42.2682 53.3112C42.7794 53.7441 42.8394 54.5086 42.4065 55.0198C41.9736 55.531 41.2089 55.591 40.6976 55.1581Z" fill="white"/>
<path fill-rule="evenodd" clip-rule="evenodd" d="M70.6351 83.1827C70.6351 83.1827 69.7693 83.4038 68.2448 83.5419C67.5678 83.6018 66.7709 83.6479 65.8728 83.6018C65.007 83.5512 64.0629 83.3899 63.0634 83.1965C61.7554 82.9478 60.3691 82.5839 58.9368 82.128C55.3535 80.9904 51.5861 79.2588 48.5371 76.6151C48.2562 76.4033 48.1962 76.0072 48.4081 75.7263C48.6154 75.4453 49.016 75.3852 49.297 75.5925C51.8163 77.186 54.6812 78.1394 57.4815 78.7935C60.3186 79.4521 63.0818 79.6042 65.334 79.853C66.3242 79.9635 67.1992 80.1153 67.95 80.2443C69.5942 80.5252 70.5615 80.7601 70.5615 80.7601C71.2293 80.7371 71.7866 81.2622 71.8096 81.9301C71.8326 82.5979 71.3029 83.1597 70.6351 83.1827Z" fill="white"/>
<path fill-rule="evenodd" clip-rule="evenodd" d="M52.6399 66.1287C52.6399 66.1287 52.3128 65.4286 51.9351 64.1621C51.7647 63.5956 51.5805 62.9325 51.4654 62.1634C51.3549 61.4219 51.3273 60.5974 51.3043 59.7177C51.2767 58.5571 51.318 57.3136 51.4055 56.0332C51.6358 52.5053 52.2437 48.7884 53.5793 45.9743C53.7037 45.6473 54.0677 45.4815 54.3993 45.6013C54.7263 45.7256 54.8921 46.094 54.7724 46.421C54.3026 48.1251 54.1736 50.0918 54.1874 52.1275C54.2012 54.3889 54.4683 56.678 54.7263 58.7459C54.8506 59.7638 55.0163 60.7126 55.09 61.5739C55.1361 62.1726 55.1362 62.716 55.1316 63.2088C55.1178 64.7609 55.0256 65.6868 55.0256 65.6868C55.1454 66.3454 54.7125 66.9761 54.0538 67.1005C53.3952 67.2202 52.7596 66.7827 52.6399 66.1287Z" fill="white"/>
<path fill-rule="evenodd" clip-rule="evenodd" d="M123.961 118.593C123.961 118.593 121.372 118.832 117.181 119.2C115.228 119.371 112.939 119.578 110.397 119.767C104.525 120.209 97.3398 120.688 90.1135 121.899C82.4404 123.189 74.7168 125.119 68.4577 128.168C68.1491 128.329 67.7667 128.209 67.6009 127.901C67.4397 127.592 67.5596 127.205 67.8682 127.044C75.5827 122.682 85.7151 119.882 95.2581 118.118C98.8183 117.464 102.291 116.939 105.529 116.566C107.993 116.285 110.309 116.05 112.423 115.949C114.597 115.843 116.545 115.852 118.194 115.88C121.81 115.944 123.979 116.17 123.979 116.17C124.652 116.175 125.19 116.722 125.181 117.39C125.177 118.058 124.629 118.597 123.961 118.593Z" fill="white"/>
<path fill-rule="evenodd" clip-rule="evenodd" d="M89.0537 135.882C88.3675 132.925 89.1181 129.443 90.2926 126.288C90.79 124.957 91.3612 123.709 91.9553 122.595C92.2409 122.06 92.5124 121.549 92.8256 121.107C93.1526 120.651 93.4935 120.264 93.8205 119.932C94.8521 118.873 95.5799 118.367 95.5799 118.367C95.9991 117.851 96.7544 117.772 97.2702 118.192C97.7861 118.611 97.8645 119.366 97.4454 119.882C97.4454 119.882 97.2058 120.541 96.6808 121.618C96.4413 122.102 96.1786 122.673 95.8102 123.276C95.2667 124.161 94.5297 125.091 93.8573 126.146C92.9592 127.564 92.052 129.084 91.3934 130.687C90.6979 132.377 90.2144 134.077 90.2743 135.721C90.3157 136.057 90.0809 136.366 89.7447 136.412C89.4085 136.458 89.0998 136.218 89.0537 135.882Z" fill="white"/>
<path fill-rule="evenodd" clip-rule="evenodd" d="M120.557 161.513C127.71 154.71 138.027 150.017 148.021 146.857C152.429 145.466 156.763 144.366 160.733 143.537C162.676 143.131 164.532 142.772 166.269 142.523C168.074 142.261 169.751 142.095 171.243 141.98C175.876 141.62 178.769 141.708 178.769 141.708C179.432 141.671 179.998 142.178 180.035 142.837C180.077 143.5 179.57 144.066 178.907 144.108C178.907 144.108 175.508 144.6 170.216 145.563C169.304 145.729 168.337 145.899 167.319 146.074C166.393 146.226 165.426 146.378 164.422 146.54C158.121 147.544 150.481 149.008 142.973 151.412C135.038 153.955 127.249 157.45 121.382 162.424C121.129 162.655 120.742 162.632 120.511 162.378C120.286 162.125 120.309 161.738 120.557 161.513Z" fill="white"/>
<path fill-rule="evenodd" clip-rule="evenodd" d="M150.911 165.428C150.247 162.314 151.657 157.847 153.573 153.72C154.296 152.149 155.088 150.643 155.885 149.294C156.263 148.649 156.626 148.028 157.022 147.489C157.432 146.931 157.851 146.452 158.238 146.033C159.463 144.725 160.325 144.044 160.325 144.044C160.739 143.523 161.495 143.436 162.015 143.846C162.531 144.26 162.618 145.015 162.208 145.536C162.208 145.536 161.845 146.365 161.126 147.691C160.799 148.299 160.421 149.008 159.929 149.759C159.201 150.878 158.252 152.067 157.359 153.384C156.134 155.185 154.885 157.115 153.927 159.04C152.813 161.283 152.025 163.443 152.126 165.267C152.172 165.603 151.938 165.911 151.602 165.958C151.265 166.004 150.957 165.764 150.911 165.428Z" fill="white"/>
<path fill-rule="evenodd" clip-rule="evenodd" d="M91.2361 51.856C89.0392 56.89 88.7584 63.5131 89.265 70.1637C89.7118 76.0682 90.863 81.9682 91.9223 86.8088C92.0881 87.5733 92.2494 88.3054 92.3876 89.0146C92.5442 89.7884 92.6778 90.53 92.8022 91.23C93.5069 95.2923 93.9905 97.8991 93.9905 97.8991C94.1839 98.5301 93.8291 99.2025 93.1935 99.396C92.5625 99.5894 91.89 99.2349 91.6966 98.5993C91.6966 98.5993 90.6188 96.0845 89.4075 92.0315C89.2003 91.3314 88.9979 90.5854 88.8091 89.7978C88.6386 89.0747 88.4818 88.3192 88.339 87.5363C87.4041 82.5207 86.6582 76.372 86.6029 70.2787C86.543 63.2965 87.4409 56.4019 90.126 51.3218C90.2734 51.0179 90.642 50.8889 90.9505 51.0362C91.2545 51.1836 91.3835 51.552 91.2361 51.856Z" fill="white"/>
<path fill-rule="evenodd" clip-rule="evenodd" d="M146.668 86.2272C145.12 92.6843 146.249 99.7679 148.423 106.474C150.459 112.742 153.484 118.633 156.174 123.381C156.598 124.132 157.008 124.851 157.395 125.551C157.819 126.311 158.214 127.043 158.588 127.738C160.734 131.736 162.231 134.264 162.231 134.264C162.627 134.794 162.512 135.55 161.982 135.941C161.448 136.337 160.697 136.226 160.301 135.692C160.301 135.692 158.256 133.426 155.608 129.544C155.152 128.876 154.687 128.153 154.221 127.379C153.798 126.674 153.383 125.924 152.969 125.141C150.316 120.144 147.585 113.829 145.871 107.22C144.015 100.058 143.403 92.5508 145.48 85.9002C145.572 85.5732 145.908 85.3797 146.235 85.4718C146.562 85.5593 146.755 85.9002 146.668 86.2272Z" fill="white"/>
<path fill-rule="evenodd" clip-rule="evenodd" d="M19.5545 0.0326494C23.672 -0.248298 26.8548 1.30358 29.1898 3.92882C30.6821 5.60069 31.7781 7.75623 32.5288 10.1742C33.2565 12.5231 33.6252 15.1393 33.662 17.8336C33.7403 23.821 32.1695 30.1952 29.535 35.0726L28.9456 36.1965L27.7112 35.8833C21.254 34.1101 16.4367 26.8099 14.3043 19.1368C12.7337 13.4764 12.5861 7.69176 14.0738 4.0809C15.1239 1.52935 16.9339 -0.0226189 19.5545 0.0326494ZM27.2552 32.3737C22.2535 30.4577 18.6058 24.5119 16.6622 18.4324C15.0318 13.3385 14.5944 8.09244 15.8057 4.75331C16.4827 2.89722 17.6754 1.66293 19.5545 1.62148C22.3272 1.81952 24.4089 2.96165 26.0071 4.64734C27.5777 6.30538 28.5819 8.55314 29.2267 11.1047C29.7563 13.2049 30.0096 15.5032 30.0419 17.8797C30.0971 22.8308 29.1574 28.095 27.2552 32.3737Z" fill="white"/>
<path fill-rule="evenodd" clip-rule="evenodd" d="M0.715593 37.7899C1.58146 34.4968 4.10061 32.7926 7.34302 32.3136C9.08858 32.0557 11.0599 32.2308 13.0956 32.742C15.0254 33.2256 17.015 34.0452 18.9171 35.1368C23.1451 37.564 26.9311 41.3269 29.0129 45.555L29.7913 47.0842L28.2207 47.7656C23.5091 49.6862 13.9845 50.718 7.41217 48.885C4.01778 47.9408 1.40179 46.2459 0.429985 43.6805C-0.177965 42.0869 -0.191729 40.1388 0.715593 37.7899ZM25.2131 45.4858C20.6489 47.0333 13.3167 47.8762 7.97411 46.6695C3.5987 45.6747 0.605112 43.2383 2.2125 38.324C3.06916 36.4587 4.61661 35.5884 6.47271 35.3074C8.1676 35.0495 10.1112 35.3765 12.1562 36.0397C13.7912 36.5647 15.4676 37.3291 17.1118 38.2779C20.2391 40.0787 23.2235 42.552 25.2131 45.4858Z" fill="white"/>
<path fill-rule="evenodd" clip-rule="evenodd" d="M21.3127 66.1053L22.2291 65.8936C25.5728 64.9771 29.4325 64.3183 33.3658 64.3782C35.9081 64.4196 38.469 64.7743 40.9192 65.4697C46.9342 67.1876 52.2767 70.9874 55.2704 77.7348L55.8784 79.0613L54.5381 79.6415C49.8265 81.599 42.0707 83.2201 35.0516 81.0001C29.5801 79.2684 24.509 75.2522 21.7226 67.2199L21.3127 66.1053ZM23.694 67.8324C27.2588 67.2797 31.307 67.2109 35.3001 67.7267C38.0129 68.0768 40.712 68.6846 43.2083 69.7946C46.7086 71.3513 49.8219 73.8154 51.982 77.6105C47.7079 79.2594 41.4811 80.4615 35.6917 78.8449C30.9432 77.5138 26.5173 74.2666 23.694 67.8324Z" fill="white"/>
<path fill-rule="evenodd" clip-rule="evenodd" d="M42.6396 128.288L43.2521 127.762C45.928 125.252 49.1382 123.138 52.6799 121.66C54.9966 120.688 57.4561 120.002 59.9477 119.615C66.3082 118.625 72.8944 119.587 78.4028 122.761L79.8027 123.544L78.8818 124.852C76.4132 128.237 69.7901 134.62 61.9006 136.278C56.0191 137.513 49.4192 136.223 43.3581 129.103L42.6396 128.288ZM45.334 128.882C47.8395 127.048 50.741 125.63 53.7945 124.561C55.95 123.806 58.1838 123.244 60.4498 122.899C65.5713 122.121 70.8539 122.48 75.4964 124.548C72.8297 127.822 67.5978 132.552 61.3985 134.068C56.3875 135.293 50.7641 134.367 45.334 128.882Z" fill="white"/>
<path fill-rule="evenodd" clip-rule="evenodd" d="M75.6598 153.103V152.251C75.5953 150.998 75.7567 146.282 77.295 141.252C78.0043 138.922 79.0589 136.55 80.4038 134.417C82.7895 130.631 86.1838 127.647 90.748 126.882L91.7153 126.703L92.2404 127.541C95.1144 132.336 95.28 139.47 91.8764 144.996C89.1821 149.372 84.291 152.785 76.7792 153.043L75.6598 153.103ZM90.3058 129.982C92.3784 133.915 92.4154 139.41 89.9145 143.841C87.8097 147.585 83.9087 150.56 77.9213 151.334C78.1976 149.542 78.9944 146.023 80.3577 142.279C81.1084 140.22 81.9972 138.074 83.1809 136.144C84.8942 133.344 87.1555 130.94 90.3058 129.982Z" fill="white"/>
<path fill-rule="evenodd" clip-rule="evenodd" d="M97.6878 174.403L98.3602 173.597C100.838 170.359 103.666 166.537 106.945 163.211C109.156 160.968 111.583 158.974 114.075 157.403C118.971 154.318 124.23 152.964 129.476 154.912L130.978 155.446L130.291 156.888C128.191 161.093 123.18 171.631 114.977 175.748C110.533 177.977 105.163 178.415 98.8206 174.993L97.6878 174.403ZM100.774 174.145C103.279 171.396 106.176 168.365 109.206 165.537C111.344 163.543 113.536 161.636 115.83 160.153C119.385 157.85 123.13 156.469 126.98 157.21C124.843 161.853 120.707 170.217 113.997 173.864C110.372 175.836 105.992 176.374 100.774 174.145Z" fill="white"/>
<path fill-rule="evenodd" clip-rule="evenodd" d="M115.177 124.395L116.07 124.528C119.124 124.864 123.449 126.113 127.981 128.153C130.403 129.245 132.877 130.571 135.249 132.068C141.849 136.245 147.606 141.744 149.6 147.165L150.245 148.86L148.444 149.109C138.933 150.306 131.43 148.469 125.977 145.074C118.323 140.303 114.67 132.468 115.117 125.555L115.177 124.395ZM116.711 126.868C119.944 127.674 124.264 129.622 128.713 132.077C131.417 133.565 134.185 135.223 136.727 137.06C140.702 139.93 144.184 143.145 146.081 146.502C138.224 147.363 131.896 145.899 127.152 143.131C120.501 139.253 116.96 132.851 116.711 126.868Z" fill="white"/>
<path fill-rule="evenodd" clip-rule="evenodd" d="M182.654 213.566L182.884 212.46C183.248 210.135 183.694 207.8 184.265 205.524C184.86 203.166 185.555 200.868 186.398 198.731C187.678 195.475 189.267 192.578 191.004 190.242C195.181 184.624 200.399 182.224 206.193 185.568L207.552 186.332L206.654 187.603C205.424 189.298 204.945 192.274 204.144 195.548C203.112 199.772 201.652 204.451 198.142 207.979C195.204 210.936 190.829 213.128 183.989 213.474L182.654 213.566ZM185.306 211.737C185.808 209.914 186.38 208.108 186.983 206.326C187.729 204.124 188.567 201.996 189.433 199.979C190.7 197.022 192.058 194.323 193.615 192.154C196.397 188.285 199.699 186.074 203.582 187.461C202.767 189.418 202.283 192.085 201.67 194.986C200.851 198.864 199.722 203.203 196.637 206.528C194.251 209.094 190.709 211.037 185.306 211.737Z" fill="white"/>
<path fill-rule="evenodd" clip-rule="evenodd" d="M183.994 164.225L185.043 164.561C187.756 165.298 191.879 164.579 196.383 164.22C198.359 164.059 200.403 163.962 202.425 164.036C204.539 164.114 206.626 164.4 208.602 164.939C213.755 166.348 218.181 169.553 220.295 176.531L220.802 178.143L219.13 178.378C208.574 179.691 200.09 179.631 194.149 177.991C187.13 176.057 183.501 172.004 183.929 165.546L183.994 164.225ZM185.536 166.947C188.355 167.596 192.302 167.435 196.539 167.348C198.423 167.306 200.362 167.283 202.283 167.375C204.157 167.463 206.013 167.642 207.773 168.084C211.609 169.056 214.967 171.225 216.966 175.808C207.662 177.139 200.109 177.259 194.679 175.942C189.115 174.592 185.886 171.695 185.536 166.947Z" fill="white"/>
<path fill-rule="evenodd" clip-rule="evenodd" d="M137.655 182.413V181.561C137.59 180.309 137.756 175.592 139.29 170.563C140.004 168.232 141.059 165.86 142.403 163.728C144.789 159.942 148.184 156.953 152.743 156.193L153.715 156.014L154.24 156.852C157.109 161.646 157.28 168.776 153.876 174.307C151.182 178.683 146.291 182.091 138.779 182.353L137.655 182.413ZM152.301 159.293C154.374 163.226 154.41 168.72 151.914 173.151C149.805 176.896 145.904 179.866 139.916 180.64C140.193 178.853 140.99 175.33 142.353 171.59C143.104 169.526 143.992 167.385 145.176 165.455C146.894 162.655 149.155 160.251 152.301 159.293Z" fill="white"/>
<path fill-rule="evenodd" clip-rule="evenodd" d="M60.6814 26.6581C63.8225 27.4457 65.4854 29.8637 65.9598 33.0508C66.2085 34.7089 66.0519 36.5974 65.5775 38.5732C65.1353 40.4063 64.38 42.3175 63.3576 44.1782C61.2113 48.0931 57.8858 51.7822 53.9756 54.3384L52.6813 55.209L51.7694 53.9471C48.3197 48.9222 47.8915 42.7321 49.2226 37.4724C50.1575 33.8016 51.9168 30.6054 53.9986 28.6158C56.0712 26.6353 58.4476 25.8061 60.6814 26.6581ZM53.4597 50.7C51.12 46.7759 50.7978 42.0964 51.6176 38.0158C52.4052 34.0963 54.2104 30.6929 56.435 29.0256C57.6094 28.1459 58.8853 27.7497 60.1611 28.155C61.9112 28.9564 62.7126 30.4302 62.9705 32.2218C63.2008 33.8292 62.8923 35.6761 62.2705 37.6565C61.7777 39.2132 61.0684 40.8299 60.1841 42.4373C58.5307 45.4448 56.2508 48.4201 53.4597 50.7Z" fill="white"/>
<path fill-rule="evenodd" clip-rule="evenodd" d="M93.7636 21.8951L94.2058 22.2086C98.4246 24.9536 100.912 29.0387 101.888 33.5845C102.528 36.5644 102.478 39.747 101.916 42.8282C100.414 51.054 95.1225 58.5704 88.5962 60.772L87.3251 61.2186L86.8413 59.9612C84.52 53.6607 83.3871 46.6692 84.0917 40.1475C84.8379 33.2897 87.5873 26.9523 93.0681 22.4801L93.7636 21.8951ZM93.3998 24.3225C96.5225 26.9201 98.1252 30.4343 98.7516 34.1788C99.1937 36.804 99.1478 39.5535 98.6734 42.2432C97.5128 48.8386 93.8834 55.1024 88.9139 57.6171C86.8828 52.0948 85.8374 46.0567 86.2841 40.3502C86.7585 34.2707 88.9139 28.5736 93.3998 24.3225Z" fill="white"/>
<path fill-rule="evenodd" clip-rule="evenodd" d="M105.264 57.6123L105.485 58.2434C106.908 61.647 107.388 64.59 107.079 67.0862C106.789 69.4213 105.808 71.3696 104.421 72.9263C101.386 76.3437 96.131 77.8912 90.4016 77.7852H89.0154V76.3991C89.149 70.3058 90.5905 66.3354 92.64 63.6826C95.864 59.5006 100.599 58.5427 104.297 57.8243L105.264 57.6123ZM103.629 59.625C104.302 62.347 104.311 64.6406 103.929 66.5842C103.602 68.2422 102.934 69.6196 101.948 70.748C99.7005 73.3272 95.9793 74.6489 91.7835 74.9483C91.8664 70.3472 92.8704 67.1922 94.4133 64.9861C96.8451 61.5042 100.53 60.3942 103.629 59.625Z" fill="white"/>
<path fill-rule="evenodd" clip-rule="evenodd" d="M140.584 51.5099L141.091 51.6985C145.922 53.3059 149.464 56.8754 151.647 61.3751C153.024 64.203 153.826 67.4085 154.134 70.6509C154.991 79.5767 151.951 88.8021 146.208 92.5926L145.089 93.3479L144.301 92.2564C139.686 85.6656 136.223 76.9055 135.794 68.5369C135.495 62.6048 136.702 56.8753 140.064 52.2512L140.584 51.5099ZM140.856 53.9508C144.605 55.7009 147.12 58.9341 148.755 62.7062C149.865 65.2715 150.565 68.0948 150.86 70.9733C151.583 78.1536 149.865 85.6656 145.706 89.4515C141.579 83.4825 138.466 75.814 137.871 68.4034C137.457 63.2266 138.268 58.1788 140.856 53.9508Z" fill="white"/>
<path fill-rule="evenodd" clip-rule="evenodd" d="M121.859 94.5178L122.472 94.3798C126.64 93.2237 130.481 93.104 133.958 94.0067C136.505 94.6699 138.85 95.8949 140.964 97.5897C145.233 101.012 148.558 106.46 150.93 113.572L151.663 115.672L149.447 115.446C142.424 114.617 133.806 113.719 128.132 109.04C124.669 106.184 122.232 101.956 121.924 95.4806L121.859 94.5178ZM123.609 96.3694C127.1 95.8306 130.237 96.1161 133.083 97.0326C135.188 97.7096 137.118 98.7551 138.896 100.174C142.35 102.933 145.228 107.054 147.453 112.438C141.3 111.918 134.318 111.14 129.445 107.391C126.428 105.079 124.259 101.615 123.609 96.3694Z" fill="white"/>
<path fill-rule="evenodd" clip-rule="evenodd" d="M164.548 82.6998L164.765 83.3354C166.257 86.9969 166.519 90.5662 165.81 93.7994C165.285 96.1944 164.198 98.3915 162.784 100.303C159.132 105.236 153.135 108.248 147.41 108.16H146.015V106.764C146.134 100.422 148.073 95.476 150.749 91.7684C154.632 86.389 160.039 83.6165 163.576 82.9118L164.548 82.6998ZM162.922 84.7539C163.645 87.7292 163.442 90.5019 162.724 93.0258C162.171 94.974 161.287 96.761 160.126 98.35C157.377 102.113 153.154 104.743 148.815 105.272C148.976 100.224 150.477 96.1715 152.564 93.0258C155.581 88.4846 159.776 85.804 162.922 84.7539Z" fill="white"/>
<path fill-rule="evenodd" clip-rule="evenodd" d="M195.69 68.0403L196.708 68.4226C201.595 70.0714 205.565 74.419 208.047 79.8952C209.512 83.1192 210.424 86.7438 210.792 90.3317C211.874 100.925 208.019 111.209 198.656 112.665L198.067 112.761L197.592 112.393C193.258 108.943 191.255 104.826 190.638 100.285C189.371 90.9673 194.165 79.7985 195.538 69.339L195.69 68.0403ZM196.952 70.9141C200.6 72.8484 203.28 76.6989 205.104 81.1664C206.325 84.1463 207.168 87.4163 207.522 90.6771C208.471 99.3727 206.186 108.124 198.781 109.837C194.037 106 192.664 101.1 192.747 95.702C192.867 87.9552 195.865 79.2273 196.952 70.9141Z" fill="white"/>
</g>
<defs>
<clipPath id="clip0_403_1088">
<rect width="195" height="188" fill="white" transform="matrix(-1 0 0 1 195 0)"/>
</clipPath>
</defs>
</svg>
