<svg width="215" height="49" viewBox="0 0 215 49" fill="none" xmlns="http://www.w3.org/2000/svg">
<g clip-path="url(#clip0_1106_260)">
<path d="M64.1143 8.5789L68.0298 18.9829L71.936 8.5789H74.9844V22.1526H72.6352V17.6777L72.8682 11.6926L68.8595 22.1526H67.1721L63.1727 11.702L63.4058 17.6777V22.1526H61.0565V8.5789H64.1143ZM82.1796 22.1526H79.8303V8.5789H82.1796V22.1526ZM94.0827 18.6566C94.0827 18.06 93.8714 17.6001 93.4488 17.2769C93.0324 16.9537 92.2772 16.6274 91.1834 16.298C90.0895 15.9686 89.2194 15.6019 88.5731 15.1979C87.3363 14.4211 86.7179 13.408 86.7179 12.1588C86.7179 11.0649 87.1622 10.1637 88.051 9.45522C88.946 8.7467 90.1051 8.39245 91.5283 8.39245C92.473 8.39245 93.3151 8.56647 94.0547 8.91451C94.7943 9.26255 95.3754 9.75976 95.7981 10.4061C96.2207 11.0463 96.432 11.7579 96.432 12.541H94.0827C94.0827 11.8325 93.859 11.2793 93.4115 10.8816C92.9702 10.4776 92.3363 10.2756 91.5097 10.2756C90.739 10.2756 90.1393 10.4403 89.7104 10.7697C89.2878 11.0991 89.0765 11.559 89.0765 12.1494C89.0765 12.6467 89.3064 13.0631 89.7663 13.3987C90.2263 13.7281 90.9845 14.0513 92.0411 14.3682C93.0976 14.679 93.946 15.0363 94.5861 15.4403C95.2263 15.8381 95.6955 16.298 95.9938 16.8201C96.2922 17.3359 96.4413 17.9419 96.4413 18.638C96.4413 19.7691 96.0063 20.6703 95.1362 21.3415C94.2723 22.0065 93.0976 22.339 91.6122 22.339C90.6302 22.339 89.7259 22.1588 88.8993 21.7983C88.079 21.4316 87.4388 20.9282 86.9789 20.2881C86.5252 19.6479 86.2983 18.9021 86.2983 18.0506H88.657C88.657 18.8213 88.9118 19.418 89.4214 19.8406C89.931 20.2632 90.6613 20.4745 91.6122 20.4745C92.4326 20.4745 93.0479 20.3098 93.4581 19.9804C93.8745 19.6448 94.0827 19.2035 94.0827 18.6566ZM110.228 10.4807H105.995V22.1526H103.655V10.4807H99.46V8.5789H110.228V10.4807ZM130.435 20.3906C129.944 21.0308 129.264 21.5155 128.394 21.8449C127.523 22.1743 126.535 22.339 125.429 22.339C124.292 22.339 123.285 22.0811 122.408 21.5653C121.532 21.0494 120.855 20.3129 120.376 19.3558C119.904 18.3925 119.658 17.2707 119.64 15.9904V14.9276C119.64 12.8766 120.131 11.2762 121.113 10.1264C122.095 8.97045 123.465 8.39245 125.224 8.39245C126.734 8.39245 127.934 8.76535 128.822 9.51116C129.711 10.257 130.246 11.3322 130.426 12.7368H128.114C127.853 11.1022 126.905 10.2849 125.27 10.2849C124.214 10.2849 123.409 10.6672 122.856 11.4316C122.309 12.1898 122.026 13.3055 122.008 14.7784V15.8225C122.008 17.2893 122.315 18.4298 122.931 19.2439C123.552 20.0519 124.413 20.4559 125.513 20.4559C126.719 20.4559 127.576 20.1824 128.086 19.6355V16.9786H125.289V15.1886H130.435V20.3906ZM142.534 18.9922H137.276L136.176 22.1526H133.724L138.852 8.5789H140.968L146.105 22.1526H143.643L142.534 18.9922ZM137.938 17.0904H141.872L139.905 11.4596L137.938 17.0904ZM154.549 16.9226H151.92V22.1526H149.561V8.5789H154.335C155.901 8.5789 157.11 8.93005 157.961 9.63235C158.813 10.3347 159.238 11.3508 159.238 12.6808C159.238 13.5882 159.018 14.3496 158.576 14.9649C158.141 15.5739 157.532 16.0432 156.749 16.3726L159.798 22.0314V22.1526H157.271L154.549 16.9226ZM151.92 15.0301H154.344C155.139 15.0301 155.761 14.8312 156.208 14.4335C156.656 14.0295 156.88 13.4795 156.88 12.7834C156.88 12.0562 156.671 11.4938 156.255 11.096C155.845 10.6982 155.23 10.4931 154.409 10.4807H151.92V15.0301ZM163.385 22.1526V8.5789H167.394C168.593 8.5789 169.656 8.84615 170.582 9.38064C171.514 9.91514 172.235 10.6734 172.745 11.6554C173.254 12.6373 173.509 13.7623 173.509 15.0301V15.7107C173.509 16.9972 173.251 18.1283 172.736 19.1041C172.226 20.0799 171.496 20.8319 170.545 21.3602C169.6 21.8884 168.516 22.1526 167.291 22.1526H163.385ZM165.744 10.4807V20.2694H167.282C168.519 20.2694 169.466 19.8841 170.125 19.1134C170.79 18.3365 171.129 17.224 171.141 15.7759V15.0208C171.141 13.5478 170.821 12.4229 170.181 11.646C169.541 10.8691 168.612 10.4807 167.394 10.4807H165.744ZM185.701 16.0929H180.126V20.2694H186.643V22.1526H177.768V8.5789H186.578V10.4807H180.126V14.2284H185.701V16.0929ZM201.24 22.1526H198.882L192.831 12.5224V22.1526H190.473V8.5789H192.831L198.9 18.2464V8.5789H201.24V22.1526ZM213.031 18.6566C213.031 18.06 212.82 17.6001 212.398 17.2769C211.981 16.9537 211.226 16.6274 210.132 16.298C209.038 15.9686 208.168 15.6019 207.522 15.1979C206.285 14.4211 205.667 13.408 205.667 12.1588C205.667 11.0649 206.111 10.1637 207 9.45522C207.895 8.7467 209.054 8.39245 210.477 8.39245C211.422 8.39245 212.264 8.56647 213.004 8.91451C213.743 9.26255 214.324 9.75976 214.747 10.4061C215.169 11.0463 215.381 11.7579 215.381 12.541H213.031C213.031 11.8325 212.808 11.2793 212.36 10.8816C211.919 10.4776 211.285 10.2756 210.458 10.2756C209.688 10.2756 209.088 10.4403 208.659 10.7697C208.237 11.0991 208.025 11.559 208.025 12.1494C208.025 12.6467 208.255 13.0631 208.715 13.3987C209.175 13.7281 209.933 14.0513 210.99 14.3682C212.046 14.679 212.895 15.0363 213.535 15.4403C214.175 15.8381 214.644 16.298 214.943 16.8201C215.241 17.3359 215.39 17.9419 215.39 18.638C215.39 19.7691 214.955 20.6703 214.085 21.3415C213.221 22.0065 212.046 22.339 210.561 22.339C209.579 22.339 208.675 22.1588 207.848 21.7983C207.028 21.4316 206.388 20.9282 205.928 20.2881C205.474 19.6479 205.247 18.9021 205.247 18.0506H207.606C207.606 18.8213 207.861 19.418 208.37 19.8406C208.88 20.2632 209.61 20.4745 210.561 20.4745C211.381 20.4745 211.997 20.3098 212.407 19.9804C212.823 19.6448 213.031 19.2035 213.031 18.6566Z" fill="#343D33"/>
<path d="M63.0147 32.2155L64.565 39.4263L68.6264 32.2155H70.1282L68.59 41.0679H67.453L68.061 37.5658L68.7845 34.003L64.7718 41.0679H63.8962L62.3155 33.8631L61.7683 37.6813L61.1785 41.0679H60.0355L61.5737 32.2155H63.0147ZM74.7701 40.4173C74.2553 40.9483 73.6007 41.2057 72.8063 41.1895C72.178 41.1733 71.7119 40.9483 71.4079 40.5146C71.108 40.0809 70.9965 39.4891 71.0735 38.7393L71.7788 34.4894H72.8792L72.1679 38.7575C72.1476 38.9358 72.1436 39.1101 72.1557 39.2804C72.176 39.5722 72.2631 39.8012 72.4172 39.9674C72.5712 40.1336 72.786 40.2228 73.0616 40.2349C73.848 40.2592 74.456 39.9411 74.8856 39.2804L75.7125 34.4894H76.813L75.6699 41.0679H74.6303L74.7701 40.4173ZM81.5157 39.2864C81.5765 38.8325 81.3272 38.5123 80.7679 38.3258L79.6248 37.9914C78.6601 37.659 78.194 37.1078 78.2264 36.3377C78.2548 35.758 78.5183 35.2838 79.0168 34.915C79.5194 34.5421 80.1092 34.3597 80.7861 34.3678C81.4508 34.3759 81.9899 34.5704 82.4034 34.9514C82.8209 35.3284 83.0215 35.8209 83.0053 36.4289L81.9109 36.4228C81.919 36.0945 81.8156 35.827 81.6008 35.6202C81.386 35.4135 81.1002 35.3061 80.7435 35.298C80.3625 35.2899 80.0342 35.3831 79.7586 35.5777C79.5032 35.7601 79.3553 35.9992 79.3148 36.2951C79.2621 36.6761 79.4951 36.9538 80.0139 37.1281L80.5672 37.2801C81.3211 37.4746 81.8562 37.728 82.1723 38.0401C82.4885 38.3522 82.6344 38.7393 82.6101 39.2013C82.5858 39.6107 82.452 39.9674 82.2088 40.2714C81.9656 40.5754 81.6413 40.8085 81.236 40.9706C80.8307 41.1287 80.399 41.2016 79.941 41.1895C79.2438 41.1814 78.6683 40.9787 78.2143 40.5815C77.7603 40.1802 77.5414 39.6654 77.5576 39.0372L78.6581 39.0432C78.6581 39.4121 78.7757 39.708 79.0108 39.9309C79.2458 40.1539 79.5681 40.2653 79.9775 40.2653C80.3787 40.2734 80.7253 40.1903 81.0171 40.016C81.309 39.8377 81.4752 39.5945 81.5157 39.2864ZM86.6987 41.1895C85.88 41.1733 85.2395 40.8713 84.7775 40.2836C84.3154 39.6958 84.1208 38.9439 84.1938 38.0279L84.2242 37.7665C84.2931 37.1139 84.4856 36.518 84.8018 35.979C85.122 35.4399 85.5111 35.0345 85.9691 34.763C86.4272 34.4873 86.9217 34.3556 87.4526 34.3678C88.1295 34.384 88.6605 34.6089 89.0456 35.0426C89.4307 35.4763 89.6414 36.0641 89.6779 36.8058C89.6901 37.0693 89.682 37.3328 89.6536 37.5962L89.5867 38.1009H85.2882C85.2152 38.6967 85.3125 39.2034 85.58 39.6208C85.8516 40.0383 86.2549 40.2552 86.7899 40.2714C87.4385 40.2876 88.0383 39.9958 88.5896 39.3959L89.2219 39.9309C88.9463 40.3281 88.5896 40.6402 88.1518 40.8672C87.7181 41.0902 87.2338 41.1976 86.6987 41.1895ZM87.3979 35.2858C86.944 35.2737 86.5467 35.4277 86.2063 35.7479C85.8698 36.0681 85.6023 36.5444 85.4037 37.1767L88.6018 37.1828L88.6261 37.0855C88.6909 36.5748 88.6078 36.1512 88.3768 35.8148C88.1498 35.4743 87.8235 35.298 87.3979 35.2858ZM94.6117 40.4173C94.0969 40.9483 93.4423 41.2057 92.6478 41.1895C92.0196 41.1733 91.5534 40.9483 91.2494 40.5146C90.9495 40.0809 90.838 39.4891 90.9151 38.7393L91.6203 34.4894H92.7208L92.0094 38.7575C91.9892 38.9358 91.9851 39.1101 91.9973 39.2804C92.0175 39.5722 92.1047 39.8012 92.2587 39.9674C92.4127 40.1336 92.6276 40.2228 92.9032 40.2349C93.6895 40.2592 94.2975 39.9411 94.7272 39.2804L95.5541 34.4894H96.6545L95.5115 41.0679H94.4718L94.6117 40.4173ZM99.4542 34.4833L99.3144 35.219C99.8656 34.6353 100.532 34.3516 101.315 34.3678C101.732 34.3759 102.085 34.4711 102.373 34.6535C102.664 34.8359 102.865 35.0933 102.975 35.4257C103.591 34.7042 104.318 34.3516 105.157 34.3678C105.814 34.384 106.298 34.6049 106.61 35.0305C106.922 35.4561 107.038 36.0276 106.957 36.745L106.233 41.0679H105.139L105.856 36.7329C105.881 36.5221 105.881 36.3296 105.856 36.1553C105.779 35.604 105.419 35.3223 104.774 35.3102C104.373 35.3021 104.008 35.4277 103.68 35.6871C103.356 35.9425 103.147 36.2789 103.054 36.6964L102.306 41.0679H101.199L101.929 36.7389C101.981 36.289 101.913 35.9425 101.722 35.6993C101.536 35.4561 101.244 35.3304 100.847 35.3223C100.162 35.3061 99.6164 35.6182 99.211 36.2586L98.3781 41.0679H97.2776L98.4206 34.4894L99.4542 34.4833ZM111.48 38.7332C111.541 37.9793 111.991 37.3064 112.83 36.7146L113.523 36.2526L113.262 35.7844C112.97 35.2494 112.84 34.7528 112.872 34.2948C112.921 33.626 113.164 33.089 113.602 32.6836C114.04 32.2742 114.591 32.0777 115.256 32.0939C115.803 32.102 116.255 32.2803 116.612 32.6289C116.968 32.9734 117.13 33.4031 117.098 33.9179C117.062 34.615 116.63 35.2534 115.803 35.833L114.909 36.4289L116.423 38.7453C116.792 38.1981 117.023 37.6104 117.116 36.9821H118.095C117.986 38.0157 117.619 38.8811 116.995 39.5783L117.949 41.0679H116.721L116.277 40.3808C115.572 40.9321 114.796 41.1996 113.949 41.1834C113.183 41.1753 112.566 40.9442 112.1 40.4903C111.634 40.0323 111.427 39.4466 111.48 38.7332ZM113.985 40.2714C114.528 40.2836 115.104 40.0545 115.712 39.5844L114.064 37.0065L113.803 37.1889C113.077 37.6915 112.676 38.2083 112.599 38.7393C112.538 39.177 112.635 39.5398 112.891 39.8276C113.146 40.1153 113.511 40.2633 113.985 40.2714ZM113.955 34.2522C113.922 34.5927 114.022 34.9677 114.253 35.377L114.417 35.6628L115.347 35.0366C115.781 34.7123 116.02 34.3374 116.064 33.9118C116.089 33.6524 116.018 33.4375 115.852 33.2673C115.685 33.0971 115.465 33.0119 115.189 33.0119C114.852 33.0119 114.571 33.1356 114.344 33.3828C114.117 33.626 113.987 33.9158 113.955 34.2522ZM122.284 41.0679L123.822 32.2155L126.418 32.2215C127.322 32.2215 127.999 32.4242 128.449 32.8295C128.899 33.2349 129.096 33.8003 129.039 34.5258C128.966 35.373 128.433 36.0114 127.44 36.441C127.837 36.5951 128.133 36.8585 128.327 37.2314C128.526 37.6043 128.607 38.0157 128.571 38.4657C128.51 39.2642 128.19 39.8985 127.61 40.3687C127.03 40.8348 126.28 41.0679 125.36 41.0679H122.284ZM124.144 36.9274L123.591 40.1133L125.397 40.1194C125.948 40.1194 126.41 39.9715 126.783 39.6756C127.156 39.3797 127.373 38.9804 127.434 38.4778C127.49 37.9995 127.407 37.6266 127.184 37.3591C126.961 37.0916 126.611 36.9497 126.133 36.9335L124.144 36.9274ZM124.309 35.9911L125.956 35.9972C126.471 35.9972 126.905 35.8655 127.257 35.602C127.614 35.3385 127.823 34.9758 127.884 34.5137C127.936 34.084 127.851 33.7598 127.628 33.5409C127.409 33.322 127.045 33.2024 126.534 33.1822L124.795 33.1761L124.309 35.9911ZM133.48 34.3678C134.031 34.3759 134.504 34.5258 134.897 34.8177C135.29 35.1095 135.58 35.5128 135.766 36.0276C135.957 36.5383 136.021 37.0977 135.961 37.7057L135.949 37.8394C135.871 38.4798 135.681 39.0595 135.377 39.5783C135.073 40.0931 134.68 40.4943 134.197 40.7821C133.715 41.0699 133.186 41.2057 132.611 41.1895C132.063 41.1814 131.591 41.0314 131.194 40.7396C130.801 40.4477 130.513 40.0505 130.331 39.5479C130.148 39.0453 130.083 38.492 130.136 37.8881C130.197 37.2071 130.381 36.5951 130.689 36.0519C130.997 35.5088 131.393 35.0893 131.875 34.7934C132.361 34.4934 132.896 34.3516 133.48 34.3678ZM131.243 37.8941C131.214 38.1495 131.214 38.415 131.243 38.6906C131.283 39.1689 131.425 39.5499 131.668 39.8336C131.915 40.1174 132.244 40.2653 132.653 40.2775C133.018 40.2896 133.354 40.2005 133.662 40.01C133.97 39.8154 134.23 39.5236 134.441 39.1344C134.651 38.7453 134.787 38.3137 134.848 37.8394C134.88 37.4665 134.887 37.1524 134.866 36.897C134.818 36.4066 134.67 36.0195 134.422 35.7358C134.175 35.452 133.847 35.3021 133.437 35.2858C132.87 35.2737 132.388 35.4966 131.99 35.9546C131.593 36.4127 131.348 37.0125 131.255 37.7543L131.243 37.8941ZM139.812 32.8964L139.533 34.4894H140.73L140.578 35.3588H139.387L138.7 39.4506C138.687 39.556 138.685 39.6533 138.693 39.7424C138.722 40.0586 138.894 40.2167 139.21 40.2167C139.344 40.2167 139.522 40.1964 139.745 40.1559L139.66 41.074C139.397 41.1469 139.129 41.1834 138.858 41.1834C138.42 41.1753 138.092 41.0152 137.873 40.7031C137.654 40.3869 137.569 39.9633 137.617 39.4324L138.286 35.3588H137.125L137.277 34.4894H138.438L138.718 32.8964H139.812ZM145.068 41.0679C145.04 40.9503 145.026 40.8348 145.026 40.7213L145.044 40.3748C144.44 40.9341 143.8 41.2057 143.123 41.1895C142.543 41.1814 142.071 40.999 141.706 40.6423C141.345 40.2815 141.181 39.8316 141.213 39.2925C141.254 38.5954 141.558 38.0522 142.125 37.6631C142.697 37.2699 143.447 37.0733 144.375 37.0733L145.524 37.0794L145.597 36.5565C145.638 36.1634 145.561 35.8533 145.366 35.6263C145.176 35.3953 144.888 35.2757 144.503 35.2676C144.126 35.2595 143.791 35.3527 143.5 35.5473C143.212 35.7378 143.035 35.9911 142.971 36.3073L141.864 36.3134C141.901 35.9283 142.051 35.5878 142.314 35.2919C142.577 34.992 142.916 34.7609 143.329 34.5988C143.743 34.4326 144.17 34.3536 144.612 34.3617C145.297 34.3779 145.83 34.5866 146.211 34.9879C146.592 35.3851 146.752 35.9141 146.692 36.5748L146.156 39.8336L146.126 40.3018C146.118 40.5247 146.142 40.7456 146.199 40.9645L146.187 41.0679H145.068ZM143.341 40.2167C143.694 40.2248 144.026 40.1417 144.339 39.9674C144.655 39.7891 144.926 39.5438 145.153 39.2317L145.39 37.8759L144.557 37.8698C143.864 37.8698 143.333 37.9793 142.965 38.1981C142.596 38.417 142.387 38.7271 142.338 39.1284C142.302 39.4364 142.373 39.6938 142.551 39.9005C142.733 40.1032 142.997 40.2086 143.341 40.2167ZM149.99 34.4833L149.832 35.3162C150.423 34.6677 151.096 34.3516 151.85 34.3678C152.47 34.384 152.928 34.5988 153.224 35.0122C153.52 35.4257 153.63 36.0073 153.553 36.7572L152.835 41.0679H151.735L152.458 36.7389C152.483 36.5403 152.485 36.3559 152.464 36.1857C152.395 35.6182 152.061 35.3284 151.461 35.3162C150.8 35.3041 150.221 35.6567 149.722 36.3742L148.908 41.0679H147.807L148.95 34.4894L149.99 34.4833ZM155.848 41.0679H154.753L155.896 34.4894H156.991L155.848 41.0679ZM156.754 32.0878C156.94 32.0797 157.094 32.1364 157.216 32.258C157.341 32.3756 157.404 32.5316 157.404 32.7262C157.4 32.9167 157.337 33.0727 157.216 33.1943C157.098 33.3159 156.944 33.3808 156.754 33.3889C156.563 33.397 156.407 33.3423 156.285 33.2247C156.164 33.1072 156.105 32.9532 156.109 32.7627C156.113 32.5722 156.174 32.4141 156.292 32.2884C156.409 32.1628 156.563 32.0959 156.754 32.0878ZM160.55 40.2775C160.944 40.2856 161.298 40.1721 161.614 39.937C161.931 39.6979 162.137 39.3858 162.235 39.0007L163.274 38.9946C163.213 39.408 163.047 39.785 162.776 40.1255C162.508 40.466 162.17 40.7314 161.76 40.922C161.351 41.1125 160.931 41.2016 160.502 41.1895C159.955 41.1814 159.49 41.0395 159.109 40.7639C158.733 40.4842 158.455 40.0971 158.277 39.6026C158.098 39.104 158.037 38.5447 158.094 37.9245L158.125 37.6205C158.202 36.9882 158.386 36.4228 158.678 35.9242C158.97 35.4257 159.351 35.0386 159.821 34.763C160.291 34.4833 160.81 34.3516 161.377 34.3678C162.066 34.384 162.618 34.615 163.031 35.0609C163.444 35.5067 163.651 36.0722 163.651 36.7572L162.624 36.7511C162.616 36.3215 162.496 35.9749 162.265 35.7114C162.034 35.4439 161.722 35.3021 161.329 35.2858C160.757 35.2737 160.281 35.4865 159.9 35.9242C159.523 36.362 159.288 36.974 159.195 37.7604L159.176 37.9185C159.152 38.1779 159.148 38.4454 159.164 38.721C159.193 39.1952 159.326 39.5702 159.565 39.8458C159.805 40.1214 160.133 40.2653 160.55 40.2775ZM168.305 41.0679C168.277 40.9503 168.263 40.8348 168.263 40.7213L168.281 40.3748C167.677 40.9341 167.037 41.2057 166.36 41.1895C165.78 41.1814 165.308 40.999 164.943 40.6423C164.582 40.2815 164.418 39.8316 164.451 39.2925C164.491 38.5954 164.795 38.0522 165.363 37.6631C165.934 37.2699 166.684 37.0733 167.612 37.0733L168.761 37.0794L168.834 36.5565C168.875 36.1634 168.798 35.8533 168.603 35.6263C168.413 35.3953 168.125 35.2757 167.74 35.2676C167.363 35.2595 167.028 35.3527 166.737 35.5473C166.449 35.7378 166.273 35.9911 166.208 36.3073L165.101 36.3134C165.138 35.9283 165.288 35.5878 165.551 35.2919C165.815 34.992 166.153 34.7609 166.566 34.5988C166.98 34.4326 167.407 34.3536 167.849 34.3617C168.534 34.3779 169.067 34.5866 169.448 34.9879C169.829 35.3851 169.989 35.9141 169.929 36.5748L169.394 39.8336L169.363 40.3018C169.355 40.5247 169.379 40.7456 169.436 40.9645L169.424 41.0679H168.305ZM166.579 40.2167C166.931 40.2248 167.264 40.1417 167.576 39.9674C167.892 39.7891 168.163 39.5438 168.39 39.2317L168.628 37.8759L167.795 37.8698C167.101 37.8698 166.57 37.9793 166.202 38.1981C165.833 38.417 165.624 38.7271 165.575 39.1284C165.539 39.4364 165.61 39.6938 165.788 39.9005C165.971 40.1032 166.234 40.2086 166.579 40.2167ZM172.236 41.0679H171.141L172.759 31.7291H173.859L172.236 41.0679ZM184.122 39.9005C183.826 40.318 183.394 40.6402 182.827 40.8672C182.263 41.0902 181.619 41.1976 180.893 41.1895C180.314 41.1773 179.807 41.0415 179.373 40.7821C178.94 40.5227 178.599 40.1518 178.352 39.6695C178.105 39.1831 177.963 38.6318 177.926 38.0157C177.898 37.5334 177.957 36.8808 178.103 36.058C178.253 35.2352 178.512 34.5238 178.881 33.9239C179.25 33.324 179.71 32.866 180.261 32.5499C180.816 32.2337 181.451 32.0817 182.164 32.0939C182.987 32.1101 183.642 32.3553 184.128 32.8295C184.618 33.2997 184.898 33.9624 184.967 34.8177H183.836C183.792 34.2583 183.623 33.8287 183.331 33.5287C183.04 33.2288 182.636 33.0707 182.122 33.0545C181.36 33.0261 180.721 33.2997 180.206 33.8753C179.696 34.4509 179.359 35.2919 179.197 36.3985L179.082 37.2497L179.063 37.7117C179.063 38.5102 179.228 39.1284 179.556 39.5661C179.884 39.9998 180.344 40.2207 180.936 40.2288C181.791 40.2491 182.47 40.0383 182.973 39.5965L183.338 37.6084H181.343L181.514 36.6599H184.627L184.122 39.9005ZM189.779 41.0679C189.751 40.9503 189.737 40.8348 189.737 40.7213L189.755 40.3748C189.151 40.9341 188.51 41.2057 187.834 41.1895C187.254 41.1814 186.782 40.999 186.417 40.6423C186.056 40.2815 185.892 39.8316 185.924 39.2925C185.965 38.5954 186.269 38.0522 186.836 37.6631C187.408 37.2699 188.158 37.0733 189.086 37.0733L190.235 37.0794L190.308 36.5565C190.349 36.1634 190.272 35.8533 190.077 35.6263C189.887 35.3953 189.599 35.2757 189.214 35.2676C188.837 35.2595 188.502 35.3527 188.211 35.5473C187.923 35.7378 187.746 35.9911 187.682 36.3073L186.575 36.3134C186.612 35.9283 186.761 35.5878 187.025 35.2919C187.288 34.992 187.627 34.7609 188.04 34.5988C188.454 34.4326 188.881 34.3536 189.323 34.3617C190.008 34.3779 190.541 34.5866 190.922 34.9879C191.303 35.3851 191.463 35.9141 191.403 36.5748L190.867 39.8336L190.837 40.3018C190.829 40.5247 190.853 40.7456 190.91 40.9645L190.898 41.0679H189.779ZM188.052 40.2167C188.405 40.2248 188.737 40.1417 189.05 39.9674C189.366 39.7891 189.637 39.5438 189.864 39.2317L190.101 37.8759L189.268 37.8698C188.575 37.8698 188.044 37.9793 187.676 38.1981C187.307 38.417 187.098 38.7271 187.049 39.1284C187.013 39.4364 187.084 39.6938 187.262 39.9005C187.444 40.1032 187.708 40.2086 188.052 40.2167ZM196.61 35.4926L196.093 35.4378C195.388 35.4378 194.832 35.756 194.427 36.3924L193.619 41.0679H192.518L193.661 34.4894L194.725 34.4833L194.561 35.2494C195.027 34.6373 195.576 34.3394 196.209 34.3556C196.342 34.3556 196.517 34.386 196.731 34.4468L196.61 35.4926ZM196.984 37.7665C197.065 37.0977 197.249 36.4937 197.537 35.9546C197.825 35.4155 198.179 35.0122 198.601 34.7447C199.022 34.4772 199.487 34.3495 199.993 34.3617C200.727 34.3779 201.29 34.6454 201.683 35.1642L202.316 31.7291H203.416L201.799 41.0679H200.796L200.911 40.3626C200.392 40.9301 199.752 41.2057 198.99 41.1895C198.382 41.1733 197.898 40.9361 197.537 40.4781C197.176 40.016 196.982 39.3979 196.953 38.6237C196.941 38.3846 196.951 38.0988 196.984 37.7665ZM198.042 38.3988C198.029 38.9784 198.133 39.4283 198.352 39.7485C198.571 40.0687 198.891 40.2329 199.312 40.241C199.949 40.2694 200.514 39.9492 201.009 39.2804L201.531 36.2404C201.288 35.6405 200.846 35.3325 200.206 35.3162C199.772 35.3041 199.389 35.4358 199.057 35.7114C198.729 35.983 198.477 36.366 198.303 36.8605C198.133 37.351 198.046 37.8637 198.042 38.3988ZM206.508 41.1895C205.689 41.1733 205.049 40.8713 204.587 40.2836C204.124 39.6958 203.93 38.9439 204.003 38.0279L204.033 37.7665C204.102 37.1139 204.295 36.518 204.611 35.979C204.931 35.4399 205.32 35.0345 205.778 34.763C206.236 34.4873 206.731 34.3556 207.262 34.3678C207.939 34.384 208.47 34.6089 208.855 35.0426C209.24 35.4763 209.45 36.0641 209.487 36.8058C209.499 37.0693 209.491 37.3328 209.463 37.5962L209.396 38.1009H205.097C205.024 38.6967 205.122 39.2034 205.389 39.6208C205.661 40.0383 206.064 40.2552 206.599 40.2714C207.247 40.2876 207.847 39.9958 208.399 39.3959L209.031 39.9309C208.755 40.3281 208.399 40.6402 207.961 40.8672C207.527 41.0902 207.043 41.1976 206.508 41.1895ZM207.207 35.2858C206.753 35.2737 206.356 35.4277 206.015 35.7479C205.679 36.0681 205.411 36.5444 205.213 37.1767L208.411 37.1828L208.435 37.0855C208.5 36.5748 208.417 36.1512 208.186 35.8148C207.959 35.4743 207.633 35.298 207.207 35.2858ZM212.426 34.4833L212.268 35.3162C212.86 34.6677 213.533 34.3516 214.287 34.3678C214.907 34.384 215.365 34.5988 215.661 35.0122C215.957 35.4257 216.066 36.0073 215.989 36.7572L215.272 41.0679H214.171L214.895 36.7389C214.919 36.5403 214.921 36.3559 214.901 36.1857C214.832 35.6182 214.498 35.3284 213.898 35.3162C213.237 35.3041 212.658 35.6567 212.159 36.3742L211.344 41.0679H210.244L211.387 34.4894L212.426 34.4833Z" fill="#333333"/>
</g>
<path fill-rule="evenodd" clip-rule="evenodd" d="M24.116 49C37.4348 49 48.2319 38.031 48.2319 24.5C48.2319 10.969 37.4348 0 24.116 0C10.7971 0 0 10.969 0 24.5C0 31.504 2.89291 37.8215 7.53104 42.2866C8.12815 41.9063 8.7211 41.5216 9.30948 41.1326C9.36842 40.7967 9.4391 40.3897 9.51815 39.9268C9.55946 39.6905 9.60387 39.4402 9.6559 39.179C9.69621 38.9688 9.74244 38.7526 9.79041 38.5283L9.81046 38.4345C10.0092 37.512 10.2176 36.4754 10.3882 35.389H10.3156C8.41217 35.4247 6.66631 34.9024 5.65798 33.749C5.19742 33.2236 4.87146 32.5661 4.77507 31.7779C4.67255 30.9354 4.83169 29.9421 5.3045 28.7934L5.3779 28.5804L5.69926 28.6519C6.92793 28.8944 8.50088 29.2177 9.57195 30.6292C10.0653 31.2779 10.4526 32.16 10.6454 33.3789C10.6633 33.1917 10.6793 33.0042 10.6933 32.8167C10.7762 31.711 10.7956 30.6075 10.7067 29.5693C8.63504 28.7398 6.97307 26.2773 6.49035 23.5906C6.30368 22.5507 6.28682 21.4765 6.4995 20.4707C6.82388 18.9365 7.65019 17.5577 9.05176 16.6313L9.19866 16.5255L9.42971 16.7229C11.2505 18.2323 12.164 20.3712 12.4118 22.6858C12.6459 24.887 12.2696 27.2467 11.4984 29.3732L11.3781 29.6908C11.5291 30.7021 11.5868 31.7757 11.5777 32.8555C11.5593 34.912 11.3115 36.9873 11.0009 38.6801C10.9535 38.9443 10.9014 39.1993 10.8448 39.4434C10.782 39.7092 10.7148 39.961 10.6459 40.1973L10.6316 40.2459C14.7321 37.4554 18.5897 34.4468 22.0602 31.2055C22.0508 31.0741 22.0361 30.8187 22.0331 30.4693C22.0315 30.3029 22.0316 30.1195 22.0469 29.9175C22.0618 29.7405 22.088 29.5526 22.1156 29.3551C22.1333 29.2282 22.1516 29.0974 22.1677 28.963C22.2279 28.473 22.2896 27.9462 22.3226 27.4117C21.0645 26.552 19.9959 25.3354 19.3003 24.0463C18.9606 23.4183 18.7096 22.7732 18.5628 22.1545C18.4052 21.4876 18.3531 20.8502 18.4357 20.2906C18.5933 19.2149 19.1458 18.3988 20.1893 18.133C20.9314 17.8455 21.7209 18.1253 22.4095 18.7938C23.1011 19.4653 23.6856 20.544 23.9962 21.783C24.4316 23.531 24.3003 25.5835 23.202 27.2651C23.2317 27.5264 23.2543 27.7884 23.271 28.0474C23.3 28.4796 23.3138 28.8993 23.3046 29.291C23.2975 29.5664 23.2891 29.8258 23.2586 30.0617C25.5089 27.8662 27.5801 25.5667 29.4294 23.1587C29.9268 22.5124 30.3353 21.9081 30.6982 21.2861L30.5366 20.973C29.6614 19.3268 29.1395 17.1755 29.1656 15.1547C29.1778 14.2453 29.3003 13.3623 29.542 12.5695C29.7914 11.7535 30.1555 11.0259 30.6513 10.4617C31.4271 9.57561 32.4844 9.05184 33.8523 9.14666C34.723 9.12801 35.3243 9.65181 35.6732 10.513C36.1674 11.7317 36.1183 13.6841 35.5966 15.5945C34.9527 17.9482 33.572 20.198 31.7152 21.0378C31.2708 21.9351 30.7656 22.7653 30.1011 23.6764C29.7506 24.1567 29.3917 24.6331 29.0247 25.1058C29.2302 25.0086 29.4436 24.9139 29.6635 24.8219C30.0145 24.6755 30.3805 24.538 30.757 24.4162C31.4576 23.0278 32.6907 21.7957 34.0642 20.9946C34.6961 20.6262 35.3571 20.3496 35.9982 20.1864C36.6745 20.0138 37.3294 19.9547 37.9093 20.0418C38.9865 20.2034 39.8234 20.7786 40.1111 21.8901C40.4125 22.6829 40.4079 23.3404 40.206 23.8782C39.8831 24.7441 39.014 25.3161 37.8863 25.6348C35.7029 26.2535 32.5386 25.9052 30.9733 25.257L30.9723 25.2565C30.9059 25.2895 30.8399 25.3229 30.7744 25.3566C30.0903 25.7088 29.4783 26.1243 28.9343 26.4937L28.9343 26.4937L28.9343 26.4937L28.9343 26.4938L28.9342 26.4938L28.9342 26.4938L28.9342 26.4938L28.9342 26.4938L28.9342 26.4938L28.9342 26.4938L28.9341 26.4938L28.9341 26.4938L28.9341 26.4939L28.9341 26.4939C28.7603 26.6119 28.5934 26.7252 28.4333 26.8302C28.1471 27.0185 27.8816 27.1721 27.6529 27.3044L27.6528 27.3045L27.6422 27.3106C27.2478 27.5371 26.9717 27.6797 26.8707 27.7308C24.3148 30.6854 21.445 33.4826 18.3425 36.1258C18.439 36.1119 18.5393 36.0987 18.6436 36.0869C18.8124 36.0679 18.9899 36.0507 19.1743 36.0327C19.8073 35.9711 20.5225 35.9014 21.2523 35.7293C21.4687 35.6779 21.6863 35.6211 21.9033 35.5574L21.987 35.372C22.9816 33.0947 24.7564 31.8122 26.7547 31.2324C27.5688 30.9977 28.4195 30.878 29.2641 30.864C30.5708 30.8438 31.8531 31.0661 32.964 31.3755L33.2684 31.4469L33.1323 31.8231C32.2065 34.5341 30.5218 35.8896 28.7041 36.4741C26.5136 37.1779 24.1071 36.7377 22.5258 36.1342C21.949 36.4308 21.3516 36.6668 20.7688 36.8547C20.293 37.0086 19.8324 37.1314 19.3979 37.2154C19.0658 37.2806 18.7522 37.3351 18.4645 37.3522C18.1662 37.3677 17.9014 37.3522 17.6765 37.332C17.3689 37.3036 17.1421 37.265 17.0113 37.239C14.3914 39.3898 11.6201 41.4355 8.74331 43.378C12.9167 46.8895 18.2737 49 24.116 49ZM11.0114 27.9892C11.5521 26.2913 11.8163 24.4779 11.6835 22.7543C11.5259 20.7024 10.8098 18.7795 9.31951 17.3447C8.2821 18.2215 7.74964 19.4075 7.54155 20.6713C7.39466 21.5574 7.40991 22.4853 7.56751 23.3932C7.93341 25.5055 9.03789 27.5171 10.5605 28.4423C10.4449 27.7963 10.2752 27.1887 10.0384 26.6376C9.98946 26.535 10.0323 26.4107 10.1333 26.3609C10.2358 26.3112 10.3583 26.3547 10.4072 26.4573C10.6511 26.9261 10.8507 27.4408 11.0114 27.9892ZM22.5488 24.6524C22.688 24.9504 22.8034 25.2783 22.8986 25.6249C23.3896 24.4456 23.4313 23.1334 23.2005 21.9664C22.9389 20.6435 22.3391 19.4948 21.6001 18.9321C21.2099 18.6352 20.786 18.5015 20.3622 18.6383C19.7808 18.9087 19.5145 19.4062 19.4289 20.0108C19.3523 20.5534 19.4548 21.1767 19.6614 21.8451C19.8251 22.3705 20.0608 22.9162 20.3545 23.4587C20.8522 24.3784 21.5208 25.2891 22.3316 26.0244C22.3079 25.5917 22.2543 25.1786 22.1524 24.8032C22.1126 24.6928 22.1677 24.5685 22.2764 24.5265C22.3865 24.4861 22.5075 24.5421 22.5488 24.6524ZM24.2238 34.9941C24.0152 35.1778 23.7965 35.3485 23.5703 35.5071C24.9526 35.9643 26.7796 36.2323 28.4914 35.7466C30.069 35.2974 31.5394 34.2014 32.4773 32.0298C31.293 31.8433 29.9481 31.82 28.6215 31.9942C27.7203 32.1123 26.8236 32.3174 25.9943 32.6921C24.9176 33.1785 23.9512 33.9275 23.2443 35.0524C23.4936 34.9332 23.737 34.7995 23.9714 34.6489C24.0647 34.579 24.1978 34.5993 24.2667 34.6941C24.3371 34.7889 24.3171 34.9226 24.2238 34.9941ZM32.451 24.636C33.9671 25.0596 36.1014 25.2538 37.6996 24.8871C39.1532 24.5513 40.1478 23.729 39.6138 22.0704C39.3292 21.4408 38.8151 21.147 38.1984 21.0522C37.6354 20.9652 36.9897 21.0755 36.3103 21.2994C35.7671 21.4766 35.2102 21.7346 34.6639 22.0548C33.7895 22.5663 32.9487 23.2386 32.3103 24.0291C32.7445 23.9552 33.1842 23.9113 33.6234 23.9063C33.7397 23.897 33.8422 23.984 33.8514 24.1021C33.8605 24.2203 33.7749 24.3244 33.6586 24.3337C33.2491 24.3997 32.8456 24.5043 32.451 24.636ZM33.1537 17.4958C32.915 18.1685 32.6929 18.7712 32.471 19.3278C33.5347 18.3933 34.3315 16.8876 34.8132 15.3568C35.3549 13.6375 35.5002 11.8669 35.0978 10.7399C34.8729 10.1135 34.4766 9.6969 33.8523 9.68291C32.9312 9.74975 32.2396 10.1352 31.7087 10.7042C31.1869 11.2638 30.8533 12.0224 30.6391 12.8836C30.4631 13.5924 30.3789 14.3681 30.3682 15.1702C30.3499 16.8413 30.6621 18.618 31.294 20.0621C31.3158 20.0536 31.3376 20.0449 31.3593 20.0359C31.7483 19.2256 32.1117 18.3337 32.5264 17.2564C32.5906 17.0792 32.7849 16.9906 32.9578 17.0558C33.1323 17.1227 33.2195 17.3201 33.1537 17.4958ZM5.92115 29.2597C5.69776 30.1784 5.69469 30.9525 5.82169 31.6085C5.93033 32.1681 6.15218 32.633 6.47962 33.0138C7.22631 33.8843 8.46259 34.3304 9.85651 34.4315C9.82897 32.8786 9.49543 31.8137 8.98285 31.0691C8.17496 29.8939 6.95091 29.5193 5.92115 29.2597Z" fill="#343D33"/>
<defs>
<clipPath id="clip0_1106_260">
<rect width="155.323" height="39.8644" fill="white" transform="translate(59.6768 4.15259)"/>
</clipPath>
</defs>
</svg>
